<svg width="24" height="24" viewBox="0 0 24 24" fill="none" xmlns="http://www.w3.org/2000/svg">
<path d="M12 13C12.5523 13 13 12.5523 13 12C13 11.4477 12.5523 11 12 11C11.4477 11 11 11.4477 11 12C11 12.5523 11.4477 13 12 13Z" fill="black"/>
<path d="M16.5 12C16.5 14.7 15.952 17.12 15.088 18.848C14.21 20.604 13.09 21.5 12 21.5C10.91 21.5 9.79 20.604 8.912 18.848C8.048 17.12 7.5 14.7 7.5 12C7.5 9.3 8.048 6.88 8.912 5.153C9.79 3.396 10.91 2.5 12 2.5C13.09 2.5 14.21 3.396 15.088 5.153C15.952 6.879 16.5 9.299 16.5 12Z" stroke="black"/>
<path d="M14.2497 15.8972C11.9107 17.2472 9.54069 17.9832 7.61369 18.0982C5.65369 18.2162 4.31669 17.6932 3.77269 16.7502C3.22769 15.8062 3.44269 14.3882 4.52569 12.7492C5.58869 11.1392 7.41069 9.45321 9.74969 8.10321C12.0887 6.75321 14.4587 6.01721 16.3857 5.90221C18.3457 5.78421 19.6827 6.30721 20.2267 7.25021C20.7717 8.19321 20.5567 9.61221 19.4737 11.2502C18.4107 12.8622 16.5887 14.5472 14.2497 15.8972Z" stroke="black"/>
<path d="M14.2497 8.10321C11.9107 6.75321 9.54069 6.01721 7.61369 5.90221C5.65369 5.78421 4.31669 6.30721 3.77269 7.25021C3.22769 8.19321 3.44269 9.61221 4.52569 11.2502C5.58869 12.8622 7.41069 14.5472 9.74969 15.8972C12.0887 17.2472 14.4587 17.9832 16.3857 18.0982C18.3457 18.2162 19.6827 17.6932 20.2267 16.7502C20.7717 15.8072 20.5567 14.3882 19.4737 12.7502C18.4107 11.1382 16.5887 9.45321 14.2497 8.10321Z" stroke="black"/>
</svg>
