<svg width="24" height="24" viewBox="0 0 24 24" fill="none" xmlns="http://www.w3.org/2000/svg">
<path d="M22.8084 6.39829L20.5584 4.18954C20.2773 3.90931 19.8965 3.75195 19.4995 3.75195C19.1026 3.75195 18.7218 3.90931 18.4406 4.18954L9.75095 12.7724L6.31126 9.43485C6.02952 9.15553 5.64859 8.9992 5.25185 9.00007C4.85512 9.00095 4.47488 9.15897 4.19438 9.43954L1.94438 11.6895C1.66358 11.9708 1.50586 12.352 1.50586 12.7494C1.50586 13.1468 1.66358 13.528 1.94438 13.8092L8.65876 20.5592C8.79805 20.6986 8.96343 20.8091 9.14544 20.8845C9.32745 20.9599 9.52253 20.9987 9.71954 20.9987C9.91655 20.9987 10.1116 20.9599 10.2936 20.8845C10.4757 20.8091 10.641 20.6986 10.7803 20.5592L22.8131 8.5236C22.9527 8.38394 23.0633 8.21808 23.1387 8.03556C23.214 7.85303 23.2526 7.65743 23.2521 7.45997C23.2517 7.26252 23.2123 7.06709 23.1361 6.8849C23.06 6.70271 22.9486 6.53734 22.8084 6.39829Z" fill="#2FAE2F"/>
</svg>
