<svg width="24" height="24" viewBox="0 0 24 24" fill="none" xmlns="http://www.w3.org/2000/svg">
<path d="M4.13901 7.19662C4.12196 7.16728 4.09754 7.14289 4.06818 7.12588C4.03881 7.10887 4.00552 7.09981 3.97158 7.09961C3.93765 7.09941 3.90424 7.10807 3.87468 7.12473C3.84512 7.14139 3.82041 7.16548 3.80301 7.19462C2.94745 8.65122 2.49754 10.3103 2.50001 11.9996C2.50001 16.4616 5.57601 20.2056 9.72401 21.2256C9.76512 21.235 9.80814 21.2312 9.84693 21.2146C9.88572 21.1981 9.9183 21.1698 9.94001 21.1336L12.406 16.9936L12.604 16.6506C12.689 16.5026 12.56 16.3176 12.39 16.3326C11.5319 16.41 10.6702 16.2308 9.91411 15.8177C9.15801 15.4047 8.54159 14.7764 8.14301 14.0126L6.17301 10.6066L4.13901 7.19662Z" fill="black"/>
<path d="M9.56639 13.4829L9.53639 13.4249L9.46239 13.2979C9.23891 12.8605 9.1323 12.3727 9.1529 11.8818C9.1735 11.391 9.32061 10.9139 9.57997 10.4967C9.83933 10.0795 10.2021 9.73641 10.6331 9.50074C11.0642 9.26508 11.5488 9.14482 12.04 9.15164C12.5312 9.15847 13.0123 9.29214 13.4366 9.53969C13.8609 9.78724 14.214 10.1403 14.4617 10.5645C14.7093 10.9887 14.8431 11.4698 14.8501 11.961C14.8571 12.4522 14.7369 12.9368 14.5014 13.3679L14.4644 13.4249L14.3944 13.5449C14.1331 13.9512 13.7727 14.2844 13.3472 14.513C12.9217 14.7417 12.445 14.8583 11.9619 14.852C11.4789 14.8457 11.0054 14.7167 10.586 14.477C10.1666 14.2373 9.81503 13.8949 9.56439 13.4819" fill="black"/>
<path d="M15.6758 14.329L13.6978 17.757L11.6468 21.202C11.6288 21.2311 11.6188 21.2644 11.6179 21.2986C11.6169 21.3328 11.625 21.3667 11.6414 21.3967C11.6577 21.4268 11.6817 21.452 11.7109 21.4698C11.7402 21.4876 11.7736 21.4973 11.8078 21.498L12.0008 21.5C14.5203 21.5 16.9367 20.4991 18.7183 18.7175C20.4999 16.9359 21.5008 14.5196 21.5008 12C21.5017 11.0825 21.3696 10.1697 21.1088 9.29001C21.0961 9.24954 21.0708 9.21416 21.0366 9.189C21.0025 9.16383 20.9612 9.15018 20.9188 9.15001H15.7258C15.5538 9.15001 15.4588 9.35501 15.5578 9.49501C16.0578 10.203 16.3508 11.067 16.3508 12C16.3522 12.8248 16.118 13.6328 15.6758 14.329ZM12.0008 7.65001H20.1208C20.2708 7.65001 20.3658 7.49201 20.2928 7.36001C19.4676 5.8858 18.2643 4.65829 16.8067 3.80402C15.3492 2.94975 13.6902 2.49961 12.0008 2.50001C10.6969 2.49818 9.4066 2.76565 8.21085 3.28566C7.0151 3.80568 5.93962 4.56702 5.05179 5.52201C5.02313 5.55364 5.00534 5.59361 5.00103 5.63607C4.99671 5.67853 5.00609 5.72126 5.02779 5.75801L7.47079 9.85201L7.67079 10.197C7.75579 10.345 7.98079 10.326 8.05279 10.17C8.40192 9.41712 8.95914 8.77981 9.65868 8.3333C10.3582 7.88678 11.1709 7.64969 12.0008 7.65001Z" fill="black"/>
</svg>
