<svg width="24" height="24" viewBox="0 0 24 24" fill="none" xmlns="http://www.w3.org/2000/svg">
<path d="M13.1875 2.9375V3.34766C13.4375 3.39453 13.6797 3.45313 13.8984 3.51172C14.3984 3.64453 14.6953 4.16016 14.5625 4.66016C14.4297 5.16016 13.9141 5.45703 13.4141 5.32422C12.9883 5.21094 12.5898 5.13281 12.2344 5.12891C11.9492 5.125 11.6602 5.19531 11.4766 5.30078C11.3945 5.35156 11.3555 5.39453 11.3398 5.41797C11.3281 5.4375 11.3125 5.46484 11.3125 5.52734V5.55078C11.3203 5.55859 11.3477 5.59766 11.4414 5.65234C11.668 5.78906 12.0039 5.89453 12.5117 6.04687L12.5469 6.05859C12.9805 6.1875 13.5586 6.36328 14.0273 6.65625C14.5625 6.99219 15.0469 7.55078 15.0586 8.41016C15.0703 9.28906 14.6133 9.92969 14.0156 10.3047C13.7539 10.4648 13.4727 10.5781 13.1836 10.6484V11.0625C13.1836 11.582 12.7656 12 12.2461 12C11.7266 12 11.3086 11.582 11.3086 11.0625V10.6172C10.9375 10.5273 10.5977 10.4102 10.3086 10.3125C10.2266 10.2852 10.1484 10.2578 10.0742 10.2344C9.58203 10.0703 9.31641 9.53906 9.48047 9.04687C9.64453 8.55469 10.1758 8.28906 10.668 8.45312C10.7695 8.48828 10.8633 8.51953 10.9531 8.55078C11.4844 8.73047 11.8672 8.85937 12.2773 8.875C12.5898 8.88672 12.8672 8.8125 13.0273 8.71484C13.1016 8.66797 13.1367 8.62891 13.1523 8.60156C13.168 8.57812 13.1875 8.53125 13.1836 8.44141V8.43359C13.1836 8.39453 13.1836 8.35156 13.0273 8.25391C12.8047 8.11328 12.4687 8.00391 11.9687 7.85156L11.8945 7.82812C11.4727 7.70312 10.918 7.53516 10.4727 7.26563C9.94531 6.94922 9.4375 6.40625 9.43359 5.54297C9.42969 4.64844 9.9375 4.03516 10.5156 3.69141C10.7656 3.54297 11.0352 3.44141 11.3047 3.37109L11.3125 2.9375C11.3125 2.41797 11.7305 2 12.25 2C12.7695 2 13.1875 2.41797 13.1875 2.9375ZM23.1953 15.1367C23.707 15.832 23.5586 16.8086 22.8633 17.3203L17.918 20.9648C17.0039 21.6367 15.9023 22 14.7656 22H2.25C1.55859 22 1 21.4414 1 20.75V18.25C1 17.5586 1.55859 17 2.25 17H3.6875L5.44141 15.5938C6.32812 14.8828 7.42969 14.5 8.56641 14.5H14.75C15.4414 14.5 16 15.0586 16 15.75C16 16.4414 15.4414 17 14.75 17H11.625C11.2812 17 11 17.2812 11 17.625C11 17.9688 11.2812 18.25 11.625 18.25H16.3359L21.0117 14.8047C21.707 14.293 22.6836 14.4414 23.1953 15.1367Z" fill="black"/>
</svg>
