<svg width="24" height="24" viewBox="0 0 24 24" fill="none" xmlns="http://www.w3.org/2000/svg">
<path d="M21.75 5.25H2.25C1.85218 5.25 1.47064 5.40804 1.18934 5.68934C0.908035 5.97064 0.75 6.35218 0.75 6.75V18.75C0.75 18.9489 0.829018 19.1397 0.96967 19.2803C1.11032 19.421 1.30109 19.5 1.5 19.5C1.69891 19.5 1.88968 19.421 2.03033 19.2803C2.17098 19.1397 2.25 18.9489 2.25 18.75V17.25H3.75V18.75C3.75 18.9489 3.82902 19.1397 3.96967 19.2803C4.11032 19.421 4.30109 19.5 4.5 19.5C4.69891 19.5 4.88968 19.421 5.03033 19.2803C5.17098 19.1397 5.25 18.9489 5.25 18.75V17.25H6.75V18.75C6.75 18.9489 6.82902 19.1397 6.96967 19.2803C7.11032 19.421 7.30109 19.5 7.5 19.5C7.69891 19.5 7.88968 19.421 8.03033 19.2803C8.17098 19.1397 8.25 18.9489 8.25 18.75V17.25H9.75V18.75C9.75 18.9489 9.82902 19.1397 9.96967 19.2803C10.1103 19.421 10.3011 19.5 10.5 19.5C10.6989 19.5 10.8897 19.421 11.0303 19.2803C11.171 19.1397 11.25 18.9489 11.25 18.75V17.25H12.75V18.75C12.75 18.9489 12.829 19.1397 12.9697 19.2803C13.1103 19.421 13.3011 19.5 13.5 19.5C13.6989 19.5 13.8897 19.421 14.0303 19.2803C14.171 19.1397 14.25 18.9489 14.25 18.75V17.25H15.75V18.75C15.75 18.9489 15.829 19.1397 15.9697 19.2803C16.1103 19.421 16.3011 19.5 16.5 19.5C16.6989 19.5 16.8897 19.421 17.0303 19.2803C17.171 19.1397 17.25 18.9489 17.25 18.75V17.25H18.75V18.75C18.75 18.9489 18.829 19.1397 18.9697 19.2803C19.1103 19.421 19.3011 19.5 19.5 19.5C19.6989 19.5 19.8897 19.421 20.0303 19.2803C20.171 19.1397 20.25 18.9489 20.25 18.75V17.25H21.75V18.75C21.75 18.9489 21.829 19.1397 21.9697 19.2803C22.1103 19.421 22.3011 19.5 22.5 19.5C22.6989 19.5 22.8897 19.421 23.0303 19.2803C23.171 19.1397 23.25 18.9489 23.25 18.75V6.75C23.25 6.35218 23.092 5.97064 22.8107 5.68934C22.5294 5.40804 22.1478 5.25 21.75 5.25ZM2.25 6.75H21.75V15.75H2.25V6.75ZM10.5 14.25C10.6989 14.25 10.8897 14.171 11.0303 14.0303C11.171 13.8897 11.25 13.6989 11.25 13.5V9C11.25 8.80109 11.171 8.61032 11.0303 8.46967C10.8897 8.32902 10.6989 8.25 10.5 8.25H4.5C4.30109 8.25 4.11032 8.32902 3.96967 8.46967C3.82902 8.61032 3.75 8.80109 3.75 9V13.5C3.75 13.6989 3.82902 13.8897 3.96967 14.0303C4.11032 14.171 4.30109 14.25 4.5 14.25H10.5ZM5.25 9.75H9.75V12.75H5.25V9.75ZM13.5 14.25H19.5C19.6989 14.25 19.8897 14.171 20.0303 14.0303C20.171 13.8897 20.25 13.6989 20.25 13.5V9C20.25 8.80109 20.171 8.61032 20.0303 8.46967C19.8897 8.32902 19.6989 8.25 19.5 8.25H13.5C13.3011 8.25 13.1103 8.32902 12.9697 8.46967C12.829 8.61032 12.75 8.80109 12.75 9V13.5C12.75 13.6989 12.829 13.8897 12.9697 14.0303C13.1103 14.171 13.3011 14.25 13.5 14.25ZM14.25 9.75H18.75V12.75H14.25V9.75Z" fill="black"/>
</svg>
