<svg width="24" height="24" viewBox="0 0 24 24" fill="none" xmlns="http://www.w3.org/2000/svg">
<g clip-path="url(#clip0_292_286)">
<path d="M21.9961 0.905273L23.093 2.00215C24.2648 3.17402 24.2648 5.07246 23.093 6.24434L20.4492 8.88809L15.1054 3.54902L17.7492 0.905273C18.9211 -0.266602 20.8195 -0.266602 21.9914 0.905273H21.9961ZM2.10232 16.5568L14.0461 4.6084L19.3898 9.95215L7.44139 21.8959C7.12732 22.21 6.73357 22.4396 6.30701 22.5615L1.43201 23.9537C1.03826 24.0662 0.616387 23.9584 0.325762 23.6678C0.0351368 23.3771 -0.0726757 22.9553 0.0398243 22.5615L1.43201 17.6865C1.55389 17.2553 1.78357 16.8662 2.09764 16.5521L2.10232 16.5568ZM11.6883 4.84746L4.84451 11.6912L0.747637 7.58965C-0.128926 6.71309 -0.128926 5.28809 0.747637 4.40684L4.40857 0.750586C5.28514 -0.125977 6.71014 -0.125977 7.59139 0.750586L8.51951 1.67871C8.50545 1.69277 8.4867 1.70684 8.47264 1.7209L5.47264 4.7209C5.18201 5.01152 5.18201 5.48965 5.47264 5.78027C5.76326 6.0709 6.24139 6.0709 6.53201 5.78027L9.53201 2.78027C9.54607 2.76621 9.56014 2.74746 9.5742 2.7334L11.6883 4.84746ZM19.1508 12.31L21.2648 14.424C21.2508 14.4381 21.232 14.4521 21.218 14.4662L18.218 17.4662C17.9273 17.7568 17.9273 18.235 18.218 18.5256C18.5086 18.8162 18.9867 18.8162 19.2773 18.5256L22.2773 15.5256C22.2914 15.5115 22.3055 15.4928 22.3195 15.4787L23.2476 16.4115C24.1242 17.2881 24.1242 18.7131 23.2476 19.5943L19.5867 23.2506C18.7101 24.1271 17.2851 24.1271 16.4039 23.2506L12.307 19.1537L19.1508 12.31Z" fill="black"/>
</g>
<defs>
<clipPath id="clip0_292_286">
<rect width="24" height="24" fill="white"/>
</clipPath>
</defs>
</svg>
