<svg width="24" height="24" viewBox="0 0 24 24" fill="none" xmlns="http://www.w3.org/2000/svg">
<path d="M21.75 10.6875H12.5625V8.0625H13.5C13.8481 8.0625 14.1819 7.92422 14.4281 7.67808C14.6742 7.43194 14.8125 7.0981 14.8125 6.75V3.75C14.8125 3.4019 14.6742 3.06806 14.4281 2.82192C14.1819 2.57578 13.8481 2.4375 13.5 2.4375H10.5C10.1519 2.4375 9.81806 2.57578 9.57192 2.82192C9.32578 3.06806 9.1875 3.4019 9.1875 3.75V6.75C9.1875 7.0981 9.32578 7.43194 9.57192 7.67808C9.81806 7.92422 10.1519 8.0625 10.5 8.0625H11.4375V10.6875H2.25C2.10082 10.6875 1.95774 10.7468 1.85225 10.8523C1.74676 10.9577 1.6875 11.1008 1.6875 11.25C1.6875 11.3992 1.74676 11.5423 1.85225 11.6477C1.95774 11.7532 2.10082 11.8125 2.25 11.8125H5.4375V15.1875H4.5C4.1519 15.1875 3.81806 15.3258 3.57192 15.5719C3.32578 15.8181 3.1875 16.1519 3.1875 16.5V19.5C3.1875 19.8481 3.32578 20.1819 3.57192 20.4281C3.81806 20.6742 4.1519 20.8125 4.5 20.8125H7.5C7.8481 20.8125 8.18194 20.6742 8.42808 20.4281C8.67422 20.1819 8.8125 19.8481 8.8125 19.5V16.5C8.8125 16.1519 8.67422 15.8181 8.42808 15.5719C8.18194 15.3258 7.8481 15.1875 7.5 15.1875H6.5625V11.8125H17.4375V15.1875H16.5C16.1519 15.1875 15.8181 15.3258 15.5719 15.5719C15.3258 15.8181 15.1875 16.1519 15.1875 16.5V19.5C15.1875 19.8481 15.3258 20.1819 15.5719 20.4281C15.8181 20.6742 16.1519 20.8125 16.5 20.8125H19.5C19.8481 20.8125 20.1819 20.6742 20.4281 20.4281C20.6742 20.1819 20.8125 19.8481 20.8125 19.5V16.5C20.8125 16.1519 20.6742 15.8181 20.4281 15.5719C20.1819 15.3258 19.8481 15.1875 19.5 15.1875H18.5625V11.8125H21.75C21.8992 11.8125 22.0423 11.7532 22.1477 11.6477C22.2532 11.5423 22.3125 11.3992 22.3125 11.25C22.3125 11.1008 22.2532 10.9577 22.1477 10.8523C22.0423 10.7468 21.8992 10.6875 21.75 10.6875ZM10.3125 6.75V3.75C10.3125 3.70027 10.3323 3.65258 10.3674 3.61742C10.4026 3.58225 10.4503 3.5625 10.5 3.5625H13.5C13.5497 3.5625 13.5974 3.58225 13.6326 3.61742C13.6677 3.65258 13.6875 3.70027 13.6875 3.75V6.75C13.6875 6.79973 13.6677 6.84742 13.6326 6.88258C13.5974 6.91775 13.5497 6.9375 13.5 6.9375H10.5C10.4503 6.9375 10.4026 6.91775 10.3674 6.88258C10.3323 6.84742 10.3125 6.79973 10.3125 6.75ZM7.6875 16.5V19.5C7.6875 19.5497 7.66775 19.5974 7.63258 19.6326C7.59742 19.6677 7.54973 19.6875 7.5 19.6875H4.5C4.45027 19.6875 4.40258 19.6677 4.36742 19.6326C4.33225 19.5974 4.3125 19.5497 4.3125 19.5V16.5C4.3125 16.4503 4.33225 16.4026 4.36742 16.3674C4.40258 16.3323 4.45027 16.3125 4.5 16.3125H7.5C7.54973 16.3125 7.59742 16.3323 7.63258 16.3674C7.66775 16.4026 7.6875 16.4503 7.6875 16.5ZM19.6875 16.5V19.5C19.6875 19.5497 19.6677 19.5974 19.6326 19.6326C19.5974 19.6677 19.5497 19.6875 19.5 19.6875H16.5C16.4503 19.6875 16.4026 19.6677 16.3674 19.6326C16.3323 19.5974 16.3125 19.5497 16.3125 19.5V16.5C16.3125 16.4503 16.3323 16.4026 16.3674 16.3674C16.4026 16.3323 16.4503 16.3125 16.5 16.3125H19.5C19.5497 16.3125 19.5974 16.3323 19.6326 16.3674C19.6677 16.4026 19.6875 16.4503 19.6875 16.5Z" fill="black"/>
</svg>
