<svg width="24" height="24" viewBox="0 0 24 24" fill="none" xmlns="http://www.w3.org/2000/svg">
<path d="M12 5.37598C5.37375 5.37598 0 8.19898 0 11.6865C0 15.174 5.37375 17.9985 12 17.9985C18.6263 17.9985 24 15.174 24 11.6865C24 8.19898 18.6263 5.37598 12 5.37598ZM12 6.00598C18.4275 6.00598 23.37 8.71273 23.37 11.6865C23.37 14.6602 18.4237 17.3685 12 17.3685C5.5725 17.3685 0.63 14.6602 0.63 11.6865C0.63 8.71273 5.57625 6.00598 12 6.00598ZM10.5428 7.25698L9.32925 13.512H10.683L11.382 9.92698C12.4837 9.92698 12.9398 9.88348 13.14 10.0987C13.3478 10.3215 13.2412 10.566 12.6697 13.5112H14.0422C14.6362 10.4662 14.8987 9.81973 14.3497 9.31498C13.827 8.83273 12.744 8.91748 11.5747 8.91748L11.8972 7.25698H10.5428ZM4.866 8.92198L3.6525 15.1815H5.01525L5.33775 13.5187C6.86175 13.5187 7.809 13.6297 8.68425 12.81C9.6525 11.9197 9.90525 10.335 9.2145 9.54223C8.8545 9.12673 8.27475 8.92198 7.4895 8.92198H4.866ZM15.51 8.92198L14.2943 15.1815H15.6592L15.9818 13.5187C17.5845 13.5187 18.4717 13.6117 19.3282 12.81C20.2965 11.9197 20.55 10.335 19.8593 9.54223C19.4993 9.12673 18.9195 8.92198 18.1335 8.92198H15.51ZM7.002 9.90823C7.85325 9.93223 8.34 10.1122 8.1345 11.181C7.84125 12.684 6.807 12.5287 5.53425 12.5287L6.04275 9.90973C6.39525 9.90973 6.71775 9.89998 7.002 9.90823ZM17.6467 9.90823C18.4995 9.93223 18.981 10.1122 18.7748 11.181C18.4778 12.7057 17.4135 12.5287 16.1745 12.5287L16.683 9.90973C17.0377 9.90973 17.3632 9.89998 17.6467 9.90823Z" fill="black"/>
</svg>
