<svg width="24" height="24" viewBox="0 0 24 24" fill="none" xmlns="http://www.w3.org/2000/svg">
<rect x="5" y="16" width="15" height="4" stroke="#FE9E00" stroke-width="2"/>
<circle cx="12.5" cy="10.5" r="8.5" fill="white"/>
<path d="M12.5 3C8.35782 3 5 6.35782 5 10.5C5 14.6422 8.35782 18 12.5 18C16.6422 18 20 14.6422 20 10.5C20 6.35782 16.6422 3 12.5 3ZM13.1476 14.5663V15.6226H12.1372V14.5782C10.4792 14.3511 9.75317 12.9888 9.75317 12.9888L10.7852 12.1255C10.7852 12.1255 11.4442 13.2726 12.6362 13.2726C13.2947 13.2726 13.7942 12.9202 13.7942 12.318C13.7942 10.9102 10.0014 11.0811 10.0014 8.46942C10.0014 7.33415 10.8993 6.51624 12.1367 6.32273V5.26744H13.1471V6.32273C14.0099 6.43625 15.0317 6.89036 15.0317 7.86721V8.61649H13.692V8.2532C13.692 7.87856 13.2147 7.6288 12.6806 7.6288C11.9995 7.6288 11.5004 7.96938 11.5004 8.4462C11.5004 9.88799 15.2933 9.53605 15.2933 12.2726C15.2933 13.3975 14.4532 14.3728 13.1476 14.5663Z" fill="#FE9E00"/>
</svg>
