<svg width="24" height="24" viewBox="0 0 24 24" fill="none" xmlns="http://www.w3.org/2000/svg">
<path d="M9.19 6.35047C7.15 8.64047 5.75 11.9305 5.62 12.2405L2 10.6905L6.05 6.64047C6.52 6.17047 7.2 5.96047 7.86 6.09047L9.19 6.35047ZM11.17 17.0005C11.17 17.0005 14.91 15.4505 17.06 13.3005C22.46 7.90047 21.56 3.68047 21.27 2.73047C20.32 2.43047 16.1 1.54047 10.7 6.94047C8.55 9.09047 7 12.8305 7 12.8305L11.17 17.0005ZM17.65 14.8105C15.36 16.8505 12.07 18.2505 11.76 18.3805L13.31 22.0005L17.36 17.9505C17.83 17.4805 18.04 16.8005 17.91 16.1405L17.65 14.8105ZM9 18.0005C9 18.8305 8.66 19.5805 8.12 20.1205C6.94 21.3005 2 22.0005 2 22.0005C2 22.0005 2.7 17.0605 3.88 15.8805C4.2988 15.4595 4.83325 15.1724 5.4155 15.0558C5.99775 14.9392 6.60153 14.9982 7.15017 15.2253C7.69882 15.4525 8.16758 15.8376 8.49694 16.3317C8.8263 16.8258 9.0014 17.4067 9 18.0005ZM13 9.00047C13 7.90047 13.9 7.00047 15 7.00047C16.1 7.00047 17 7.90047 17 9.00047C17 10.1005 16.1 11.0005 15 11.0005C13.9 11.0005 13 10.1005 13 9.00047Z" fill="black"/>
</svg>
