<svg width="24" height="24" viewBox="0 0 24 24" fill="none" xmlns="http://www.w3.org/2000/svg">
<path fill-rule="evenodd" clip-rule="evenodd" d="M19.6411 13.4284L14.5437 10.6444C13.7835 10.2293 12.9011 10.0088 12 10.0088C11.0989 10.0088 10.2165 10.2293 9.4563 10.6444L4.35892 13.4284L10.2593 16.6516C10.7795 16.9357 11.3834 17.0866 12 17.0866C12.6166 17.0866 13.2205 16.9357 13.7407 16.6516L19.6411 13.4284ZM20.9997 14.1895C20.9153 14.2488 20.8255 14.3045 20.7304 14.3564L14.5437 17.7345C13.7835 18.1497 12.9011 18.3702 12 18.3702C11.0989 18.3702 10.2165 18.1497 9.4563 17.7345L3.27062 14.3564C3.17731 14.3051 3.08739 14.2494 3.00129 14.1895C1.5818 15.1825 1.67158 17.1216 3.27062 17.9948L9.4553 21.3729C10.2156 21.7882 11.0982 22.0088 11.9995 22.0088C12.9008 22.0088 13.7834 21.7882 14.5437 21.3729L20.7294 17.9948C22.3284 17.1216 22.4192 15.1825 20.9997 14.1895Z" fill="black"/>
<path fill-rule="evenodd" clip-rule="evenodd" d="M19.6411 9.41963L14.5437 6.63565C13.7835 6.2205 12.9011 6 12 6C11.0989 6 10.2165 6.2205 9.4563 6.63565L4.35892 9.41963L10.2593 12.6428C10.7795 12.9269 11.3834 13.0778 12 13.0778C12.6166 13.0778 13.2205 12.9269 13.7407 12.6428L19.6411 9.41963ZM20.9997 10.1807C20.9153 10.24 20.8255 10.2957 20.7304 10.3476L14.5437 13.7257C13.7835 14.1409 12.9011 14.3614 12 14.3614C11.0989 14.3614 10.2165 14.1409 9.4563 13.7257L3.27062 10.3476C3.17731 10.2963 3.08739 10.2406 3.00129 10.1807C1.5818 11.1737 1.67158 13.1128 3.27062 13.986L9.4553 17.3641C10.2156 17.7794 11.0982 18 11.9995 18C12.9008 18 13.7834 17.7794 14.5437 17.3641L20.7294 13.986C22.3284 13.1128 22.4192 11.1737 20.9997 10.1807Z" fill="#C1C1C1"/>
<path fill-rule="evenodd" clip-rule="evenodd" d="M3.27039 10.9861C1.57654 10.0615 1.57654 7.93848 3.27039 7.01393L9.45523 3.63591C10.2156 3.2206 11.0982 3 11.9995 3C12.9008 3 13.7834 3.2206 14.5438 3.63591L20.7296 7.01393C22.4235 7.93848 22.4235 10.0615 20.7296 10.9861L14.5448 14.3641C13.7844 14.7794 12.9018 15 12.0005 15C11.0992 15 10.2166 14.7794 9.45623 14.3641L3.27039 10.9861Z" fill="black"/>
</svg>
