<svg width="24" height="24" viewBox="0 0 24 24" fill="none" xmlns="http://www.w3.org/2000/svg">
<path d="M4 5C4 4.998 3.997 4.981 4.035 4.919C4.078 4.849 4.165 4.745 4.326 4.618C4.656 4.358 5.196 4.079 5.952 3.828C7.454 3.326 9.592 3 12 3C14.408 3 16.546 3.327 18.048 3.827C18.804 4.079 19.344 4.357 19.674 4.617C19.836 4.745 19.922 4.849 19.964 4.919C20.004 4.982 20 5 20 5C20 5.003 20.003 5.02 19.965 5.081C19.922 5.151 19.835 5.255 19.674 5.382C19.344 5.642 18.804 5.921 18.048 6.172C16.546 6.674 14.408 7 12 7C9.592 7 7.454 6.673 5.952 6.173C5.196 5.921 4.656 5.643 4.326 5.383C4.21238 5.30011 4.11422 5.19788 4.036 5.081C3.997 5.021 4 5.003 4 5ZM20 7.527V12L19.997 12.015C19.9891 12.0382 19.9783 12.0604 19.965 12.081C19.922 12.151 19.835 12.255 19.674 12.382C19.344 12.642 18.804 12.921 18.048 13.172C16.546 13.673 14.408 14 12 14C9.592 14 7.454 13.673 5.952 13.173C5.196 12.921 4.656 12.643 4.326 12.383C4.21238 12.3001 4.11422 12.1979 4.036 12.081C4.02233 12.0604 4.01124 12.0383 4.003 12.015L4 12V7.527C4.42592 7.7405 4.86714 7.92201 5.32 8.07C7.075 8.655 9.437 9 12 9C14.563 9 16.925 8.655 18.68 8.07C19.133 7.92236 19.5742 7.74084 20 7.527ZM20 14.527V19L19.997 19.015C19.9891 19.0382 19.9783 19.0604 19.965 19.081C19.922 19.151 19.835 19.255 19.674 19.382C19.344 19.642 18.804 19.921 18.048 20.172C16.546 20.673 14.408 21 12 21C9.592 21 7.454 20.673 5.952 20.173C5.196 19.921 4.656 19.643 4.326 19.383C4.21238 19.3001 4.11422 19.1979 4.036 19.081C4.02233 19.0604 4.01124 19.0383 4.003 19.015L4 19V14.527C4.42576 14.7408 4.86701 14.9224 5.32 15.07C7.075 15.655 9.437 16 12 16C14.563 16 16.925 15.655 18.68 15.07C19.133 14.9224 19.5742 14.7408 20 14.527ZM2 19C2 19.852 2.519 20.504 3.088 20.953C3.669 21.411 4.448 21.779 5.32 22.07C7.075 22.655 9.437 23 12 23C14.563 23 16.925 22.655 18.68 22.07C19.553 21.78 20.331 21.41 20.912 20.953C21.482 20.504 22 19.852 22 19V5C22 4.148 21.481 3.496 20.912 3.047C20.331 2.589 19.552 2.221 18.68 1.93C16.925 1.345 14.563 1 12 1C9.437 1 7.075 1.345 5.32 1.93C4.447 2.22 3.669 2.59 3.088 3.047C2.518 3.496 2 4.148 2 5V19Z" fill="black"/>
</svg>
