<svg width="20" height="15" viewBox="0 0 20 15" fill="none" xmlns="http://www.w3.org/2000/svg">
<mask id="mask0_568_709" style="mask-type:luminance" maskUnits="userSpaceOnUse" x="0" y="0" width="20" height="15">
<rect width="20" height="15" fill="white"/>
</mask>
<g mask="url(#mask0_568_709)">
<path fill-rule="evenodd" clip-rule="evenodd" d="M0 0H20V15H0V0Z" fill="#E31D1C"/>
<path fill-rule="evenodd" clip-rule="evenodd" d="M0 1.25V2.5H20V1.25H0ZM0 3.75V5H20V3.75H0ZM0 7.5V6.25H20V7.5H0ZM0 8.75V10H20V8.75H0ZM0 12.5V11.25H20V12.5H0ZM0 15V13.75H20V15H0Z" fill="#F7FCFF"/>
<rect width="11.25" height="8.75" fill="#2E42A5"/>
<path fill-rule="evenodd" clip-rule="evenodd" d="M1.30002 2.71718L1.96242 2.25577L2.47624 2.62569H2.18532L2.77365 3.14606L2.57494 3.87569H2.2637L1.96149 3.20557L1.70376 3.87569H0.935318L1.52365 4.39606L1.30002 5.21719L1.96242 4.75577L2.47624 5.12569H2.18532L2.77365 5.64606L2.57494 6.37569H2.2637L1.96149 5.70557L1.70376 6.37569H0.935318L1.52365 6.89606L1.30002 7.71719L1.96242 7.25577L2.60334 7.71719L2.40407 6.89606L2.91878 6.37569H2.68137L3.21242 6.00577L3.72624 6.37569H3.43532L4.02365 6.89606L3.80002 7.71719L4.46242 7.25577L5.10334 7.71719L4.90407 6.89606L5.41878 6.37569H5.18137L5.71242 6.00577L6.22624 6.37569H5.93532L6.52365 6.89606L6.30002 7.71719L6.96242 7.25577L7.60334 7.71719L7.40407 6.89606L7.91878 6.37569H7.68137L8.21242 6.00577L8.72624 6.37569H8.43532L9.02365 6.89606L8.80002 7.71719L9.46242 7.25577L10.1033 7.71719L9.90407 6.89606L10.4188 6.37569H9.7637L9.46149 5.70557L9.20376 6.37569H8.83113L8.65407 5.64606L9.16878 5.12569H8.93137L9.46242 4.75577L10.1033 5.21719L9.90407 4.39606L10.4188 3.87569H9.7637L9.46149 3.20557L9.20376 3.87569H8.83113L8.65407 3.14606L9.16878 2.62569H8.93137L9.46242 2.25577L10.1033 2.71718L9.90407 1.89606L10.4188 1.37569H9.7637L9.46149 0.705566L9.20376 1.37569H8.43532L9.02365 1.89606L8.82494 2.62569H8.5137L8.21149 1.95557L7.95376 2.62569H7.58113L7.40407 1.89606L7.91878 1.37569H7.2637L6.96149 0.705566L6.70376 1.37569H5.93532L6.52365 1.89606L6.32494 2.62569H6.0137L5.71149 1.95557L5.45376 2.62569H5.08113L4.90407 1.89606L5.41878 1.37569H4.7637L4.46149 0.705566L4.20376 1.37569H3.43532L4.02365 1.89606L3.82494 2.62569H3.5137L3.21149 1.95557L2.95376 2.62569H2.58113L2.40407 1.89606L2.91878 1.37569H2.2637L1.96149 0.705566L1.70376 1.37569H0.935318L1.52365 1.89606L1.30002 2.71718ZM8.82494 5.12569L9.02365 4.39606L8.43532 3.87569H8.72624L8.21242 3.50577L7.68137 3.87569H7.91878L7.40407 4.39606L7.58113 5.12569H7.95376L8.21149 4.45557L8.5137 5.12569H8.82494ZM7.47624 5.12569L6.96242 4.75577L6.43137 5.12569H6.66878L6.15407 5.64606L6.33113 6.37569H6.70376L6.96149 5.70557L7.2637 6.37569H7.57494L7.77365 5.64606L7.18532 5.12569H7.47624ZM5.27365 5.64606L5.07494 6.37569H4.7637L4.46149 5.70557L4.20376 6.37569H3.83113L3.65407 5.64606L4.16878 5.12569H3.93137L4.46242 4.75577L4.97624 5.12569H4.68532L5.27365 5.64606ZM5.45376 5.12569H5.08113L4.90407 4.39606L5.41878 3.87569H5.18137L5.71242 3.50577L6.22624 3.87569H5.93532L6.52365 4.39606L6.32494 5.12569H6.0137L5.71149 4.45557L5.45376 5.12569ZM3.82494 5.12569L4.02365 4.39606L3.43532 3.87569H3.72624L3.21242 3.50577L2.68137 3.87569H2.91878L2.40407 4.39606L2.58113 5.12569H2.95376L3.21149 4.45557L3.5137 5.12569H3.82494ZM7.77365 3.14606L7.57494 3.87569H7.2637L6.96149 3.20557L6.70376 3.87569H6.33113L6.15407 3.14606L6.66878 2.62569H6.43137L6.96242 2.25577L7.47624 2.62569H7.18532L7.77365 3.14606ZM4.97624 2.62569L4.46242 2.25577L3.93137 2.62569H4.16878L3.65407 3.14606L3.83113 3.87569H4.20376L4.46149 3.20557L4.7637 3.87569H5.07494L5.27365 3.14606L4.68532 2.62569H4.97624Z" fill="#F7FCFF"/>
</g>
</svg>
