<svg width="24" height="24" viewBox="0 0 24 24" fill="none" xmlns="http://www.w3.org/2000/svg">
<path fill-rule="evenodd" clip-rule="evenodd" d="M4 4C3.46957 4 2.96086 4.21071 2.58579 4.58579C2.21071 4.96086 2 5.46957 2 6V18C2 18.5304 2.21071 19.0391 2.58579 19.4142C2.96086 19.7893 3.46957 20 4 20H20C20.5304 20 21.0391 19.7893 21.4142 19.4142C21.7893 19.0391 22 18.5304 22 18V6C22 5.46957 21.7893 4.96086 21.4142 4.58579C21.0391 4.21071 20.5304 4 20 4H4ZM20 11H4V18H20V11ZM5 8C5 7.73478 5.10536 7.48043 5.29289 7.29289C5.48043 7.10536 5.73478 7 6 7H6.01C6.27522 7 6.52957 7.10536 6.71711 7.29289C6.90464 7.48043 7.01 7.73478 7.01 8C7.01 8.26522 6.90464 8.51957 6.71711 8.70711C6.52957 8.89464 6.27522 9 6.01 9H6C5.73478 9 5.48043 8.89464 5.29289 8.70711C5.10536 8.51957 5 8.26522 5 8ZM9 7C8.73478 7 8.48043 7.10536 8.29289 7.29289C8.10536 7.48043 8 7.73478 8 8C8 8.26522 8.10536 8.51957 8.29289 8.70711C8.48043 8.89464 8.73478 9 9 9H9.01C9.27522 9 9.52957 8.89464 9.71711 8.70711C9.90464 8.51957 10.01 8.26522 10.01 8C10.01 7.73478 9.90464 7.48043 9.71711 7.29289C9.52957 7.10536 9.27522 7 9.01 7H9ZM11 8C11 7.73478 11.1054 7.48043 11.2929 7.29289C11.4804 7.10536 11.7348 7 12 7H12.01C12.2752 7 12.5296 7.10536 12.7171 7.29289C12.9046 7.48043 13.01 7.73478 13.01 8C13.01 8.26522 12.9046 8.51957 12.7171 8.70711C12.5296 8.89464 12.2752 9 12.01 9H12C11.7348 9 11.4804 8.89464 11.2929 8.70711C11.1054 8.51957 11 8.26522 11 8Z" fill="black"/>
</svg>
